<svg width="14" height="22" viewBox="0 0 14 22" fill="none" xmlns="http://www.w3.org/2000/svg">
<path fill-rule="evenodd" clip-rule="evenodd" d="M10.1748 1.51571C10.7915 2.05186 12.0822 3.17961 12.0822 5.32541C12.0822 7.41354 10.9541 8.40114 9.82594 9.33118C9.47541 9.69853 9.07279 10.0931 9.07279 10.7142C9.07279 11.3352 9.47536 11.6746 9.77102 11.9275L10.7382 12.7174C11.9213 13.7611 12.9961 14.7216 12.9961 16.668C12.9961 19.3204 10.5499 22 5.9278 22C2.03101 22 0.150635 20.0535 0.150635 17.9653C0.150635 16.9497 0.63467 15.5115 2.22002 14.5231C3.88485 13.4513 6.14424 13.3105 7.35215 13.2257C6.97634 12.7174 6.54681 12.1804 6.54681 11.3072C6.54681 10.827 6.68068 10.5453 6.81487 10.2067C6.51916 10.2347 6.22413 10.2627 5.95518 10.2627C3.10657 10.2627 1.49368 8.03373 1.49368 5.83357C1.49368 4.53539 2.05923 3.09557 3.2139 2.05186C4.74632 0.725694 6.57424 0.5 8.02404 0.5H13.5594L11.8397 1.51571H10.1748V1.51571ZM8.25632 14.0289C8.0412 14 7.90876 14 7.6431 14C7.4024 14 5.96103 14.0578 4.84061 14.464C4.25302 14.6972 2.54506 15.3935 2.54506 17.4568C2.54506 19.5193 4.38546 21 7.2426 21C9.80527 21 11.165 19.6652 11.165 17.8639C11.165 16.3814 10.2851 15.5978 8.25632 14.0289V14.0289ZM9.06875 8.71341C9.67596 8.06782 9.72834 7.16906 9.72834 6.66433C9.72834 4.64376 8.59414 1.5 6.40725 1.5C5.72225 1.5 4.98352 1.86462 4.56119 2.42666C4.11329 3.01661 3.98172 3.77374 3.98172 4.50292C3.98172 6.3833 5.00905 9.5 7.27672 9.5C7.93538 9.49994 8.6456 9.16251 9.06875 8.71341V8.71341Z" fill="white"/>
</svg>
